<svg width="35" height="35" viewBox="0 0 35 35" fill="none" xmlns="http://www.w3.org/2000/svg">
<path fill-rule="evenodd" clip-rule="evenodd" d="M9.14896 5.83327H25.8507C27.5023 5.82919 29.0875 6.48241 30.2568 7.64878C31.4261 8.81516 32.0832 10.3988 32.0832 12.0504V22.6425C32.0832 24.294 31.4261 25.8777 30.2568 27.0441C29.0875 28.2104 27.5023 28.8637 25.8507 28.8596H9.14896C7.49742 28.8637 5.91213 28.2104 4.74288 27.0441C3.57362 25.8777 2.9165 24.294 2.9165 22.6425V12.0504C2.9165 10.3988 3.57362 8.81516 4.74288 7.64878C5.91213 6.48241 7.49742 5.82919 9.14896 5.83327ZM25.8507 26.557C27.9856 26.5575 29.7305 24.8536 29.7805 22.7192V12.0504C29.7721 9.88599 28.0151 8.13589 25.8507 8.1359H9.14896C6.98456 8.13589 5.22759 9.88599 5.21913 12.0504V22.6425C5.22759 24.8069 6.98456 26.557 9.14896 26.557H25.8507Z" fill="black"/>
<path fill-rule="evenodd" clip-rule="evenodd" d="M11.252 17.7763C11.252 14.385 14.0012 11.6359 17.3924 11.6359C20.7836 11.6359 23.5327 14.385 23.5327 17.7763C23.5327 21.1675 20.7836 23.9166 17.3924 23.9166C14.0012 23.9166 11.252 21.1675 11.252 17.7763ZM13.5547 17.7763C13.5547 19.8958 15.2729 21.614 17.3924 21.614C19.5119 21.614 21.2301 19.8958 21.2301 17.7763C21.2301 15.6568 19.5119 13.9386 17.3924 13.9386C15.2729 13.9386 13.5547 15.6568 13.5547 17.7763Z" fill="black"/>
<path d="M23.5327 10.8146C23.5327 10.4119 23.8592 10.0855 24.2619 10.0855H25.8737C26.2764 10.0855 26.6029 10.4119 26.6029 10.8146V12.4418C26.6029 12.8446 26.2764 13.171 25.8737 13.171H24.2619C23.8592 13.171 23.5327 12.8445 23.5327 12.4418V10.8146Z" fill="black"/>
</svg>
