<svg width="20" height="20" viewBox="0 0 20 20" fill="none" xmlns="http://www.w3.org/2000/svg">
<path d="M3.32552 2.44153C2.86552 2.44153 2.49219 2.81486 2.49219 3.27486C2.49219 3.73486 2.86552 4.10819 3.32552 4.10819H16.6588C17.1188 4.10819 17.4922 3.73486 17.4922 3.27486C17.4922 2.81486 17.1188 2.44153 16.6588 2.44153H3.32552ZM4.99219 5.77486C3.61135 5.77486 2.49219 6.89403 2.49219 8.27486V11.6082C2.49219 12.989 3.61135 14.1082 4.99219 14.1082H14.9922C16.373 14.1082 17.4922 12.989 17.4922 11.6082V8.27486C17.4922 6.89403 16.373 5.77486 14.9922 5.77486H4.99219ZM3.32552 15.7749C2.86552 15.7749 2.49219 16.1482 2.49219 16.6082C2.49219 17.0682 2.86552 17.4415 3.32552 17.4415H16.6588C17.1188 17.4415 17.4922 17.0682 17.4922 16.6082C17.4922 16.1482 17.1188 15.7749 16.6588 15.7749H3.32552Z" fill="#949191"/>
</svg>
