<svg width="24" height="24" viewBox="0 0 24 24" fill="none" xmlns="http://www.w3.org/2000/svg">
<path fill-rule="evenodd" clip-rule="evenodd" d="M12 2.5C6.75329 2.5 2.5 6.75329 2.5 12C2.5 17.2467 6.75329 21.5 12 21.5C17.2467 21.5 21.5 17.2467 21.5 12C21.5 6.75329 17.2467 2.5 12 2.5ZM1.5 12C1.5 6.20101 6.20101 1.5 12 1.5C17.799 1.5 22.5 6.20101 22.5 12C22.5 17.799 17.799 22.5 12 22.5C6.20101 22.5 1.5 17.799 1.5 12Z" fill="#FF0000"/>
<path fill-rule="evenodd" clip-rule="evenodd" d="M15.8891 16.5961L7.40381 8.11084L8.11092 7.40373L16.5962 15.889L15.8891 16.5961Z" fill="#FF0000"/>
<path fill-rule="evenodd" clip-rule="evenodd" d="M16.5961 8.11091L8.11084 16.5962L7.40373 15.8891L15.889 7.4038L16.5961 8.11091Z" fill="#FF0000"/>
</svg>
