<svg width="20" height="20" viewBox="0 0 20 20" fill="none" xmlns="http://www.w3.org/2000/svg">
<path d="M9.9989 1.67847C8.9214 1.67847 7.70641 4.97013 7.55058 9.17846H12.4472C12.2914 4.97096 11.0764 1.67847 9.9989 1.67847ZM7.3689 2.09513C4.2964 3.1193 1.98307 5.92929 1.69141 9.17846H5.88391C5.97641 6.31263 6.4939 3.77096 7.3689 2.09513ZM12.6289 2.09513C13.5039 3.77096 14.0214 6.31263 14.1139 9.17846H18.2806C17.9789 5.89096 15.7314 3.13763 12.6289 2.09513ZM1.71724 10.8451C2.01724 14.1843 4.33557 16.9201 7.39473 17.9284C6.52057 16.2526 5.97641 13.711 5.88391 10.8451H1.71724ZM7.55058 10.8451C7.70641 15.0526 8.9214 18.3451 9.9989 18.3451C11.0764 18.3451 12.2914 15.0534 12.4472 10.8451H7.55058ZM14.1139 10.8451C14.0214 13.711 13.4772 16.2526 12.6031 17.9284C15.7456 16.8593 17.9739 14.0785 18.2806 10.8451H14.1139Z" fill="#949191"/>
</svg>
