
<svg width="32" height="32" viewBox="0 0 32 32" fill="none" xmlns="http://www.w3.org/2000/svg">
<path fill-rule="evenodd" clip-rule="evenodd" d="M9.85391 6.88333C8.31448 8.31246 7.33333 10.4378 7.33333 13.2368C7.33333 15.166 8.44775 17.5413 9.99114 19.8705C11.5156 22.171 13.3794 24.3114 14.7204 25.7449C15.4241 26.4971 16.5759 26.4971 17.2796 25.7449C18.6206 24.3114 20.4844 22.171 22.0089 19.8705C23.5523 17.5413 24.6667 15.166 24.6667 13.2368C24.6667 10.4378 23.6855 8.31246 22.1461 6.88333C20.5993 5.44736 18.4368 4.66666 16 4.66666C13.5632 4.66666 11.4007 5.44736 9.85391 6.88333ZM8.94676 5.90616C10.778 4.20615 13.2821 3.33333 16 3.33333C18.7179 3.33333 21.222 4.20615 23.0532 5.90616C24.8918 7.613 26 10.1061 26 13.2368C26 15.5871 24.6839 18.2473 23.1203 20.607C21.5378 22.9952 19.6182 25.1968 18.2533 26.6558C17.0226 27.9713 14.9774 27.9713 13.7467 26.6558C12.3818 25.1968 10.4622 22.9952 8.87968 20.607C7.3161 18.2473 6 15.5871 6 13.2368C6 10.1061 7.10819 7.613 8.94676 5.90616Z" fill="black"/>
<path fill-rule="evenodd" clip-rule="evenodd" d="M16.0002 8.66666C14.1592 8.66666 12.6668 10.159 12.6668 12C12.6668 13.8409 14.1592 15.3333 16.0002 15.3333C17.8411 15.3333 19.3335 13.8409 19.3335 12C19.3335 10.159 17.8411 8.66666 16.0002 8.66666ZM11.3335 12C11.3335 9.42267 13.4228 7.33333 16.0002 7.33333C18.5775 7.33333 20.6668 9.42267 20.6668 12C20.6668 14.5773 18.5775 16.6667 16.0002 16.6667C13.4228 16.6667 11.3335 14.5773 11.3335 12Z" fill="black"/>
</svg>
