<svg width="24" height="24" viewBox="0 0 24 24" fill="none" xmlns="http://www.w3.org/2000/svg">
<path fill-rule="evenodd" clip-rule="evenodd" d="M12 2.5C9.23858 2.5 7 4.73858 7 7.5C7 10.2614 9.23858 12.5 12 12.5C14.7614 12.5 17 10.2614 17 7.5C17 4.73858 14.7614 2.5 12 2.5ZM6 7.5C6 4.18629 8.68629 1.5 12 1.5C15.3137 1.5 18 4.18629 18 7.5C18 10.8137 15.3137 13.5 12 13.5C8.68629 13.5 6 10.8137 6 7.5Z" fill="black"/>
<path fill-rule="evenodd" clip-rule="evenodd" d="M12.0001 13.5C7.43429 13.5 3.66856 16.372 2.72821 20.1404C2.56082 20.8112 3.12682 21.5 4.00015 21.5H20.0001C20.8735 21.5 21.4395 20.8112 21.2721 20.1404C20.3317 16.372 16.566 13.5 12.0001 13.5ZM1.75797 19.8983C2.82274 15.6313 7.03253 12.5 12.0001 12.5C16.9678 12.5 21.1776 15.6313 22.2423 19.8983C22.6098 21.3709 21.336 22.5 20.0001 22.5H4.00015C2.66433 22.5 1.39051 21.3709 1.75797 19.8983Z" fill="black"/>
</svg>
