<svg width="22" height="22" viewBox="0 0 22 22" fill="none" xmlns="http://www.w3.org/2000/svg">
<path d="M2.74919 5.59473C2.24319 5.59473 1.83252 6.00539 1.83252 6.51139C1.83252 7.01739 2.24319 7.42806 2.74919 7.42806H19.2492C19.7552 7.42806 20.1659 7.01739 20.1659 6.51139C20.1659 6.00539 19.7552 5.59473 19.2492 5.59473H2.74919ZM2.74919 10.1781C2.24319 10.1781 1.83252 10.5887 1.83252 11.0947C1.83252 11.6007 2.24319 12.0114 2.74919 12.0114H19.2492C19.7552 12.0114 20.1659 11.6007 20.1659 11.0947C20.1659 10.5887 19.7552 10.1781 19.2492 10.1781H2.74919ZM2.74919 14.7614C2.24319 14.7614 1.83252 15.1721 1.83252 15.6781C1.83252 16.1841 2.24319 16.5947 2.74919 16.5947H19.2492C19.7552 16.5947 20.1659 16.1841 20.1659 15.6781C20.1659 15.1721 19.7552 14.7614 19.2492 14.7614H2.74919Z" fill="#2A343D"/>
</svg>
