<svg width="24" height="24" viewBox="0 0 24 24" fill="none" xmlns="http://www.w3.org/2000/svg">
<path fill-rule="evenodd" clip-rule="evenodd" d="M9 3.5C7.067 3.5 5.5 5.067 5.5 7C5.5 8.933 7.067 10.5 9 10.5C10.933 10.5 12.5 8.933 12.5 7C12.5 5.067 10.933 3.5 9 3.5ZM4.5 7C4.5 4.51472 6.51472 2.5 9 2.5C11.4853 2.5 13.5 4.51472 13.5 7C13.5 9.48528 11.4853 11.5 9 11.5C6.51472 11.5 4.5 9.48528 4.5 7Z" fill="#727272"/>
<path fill-rule="evenodd" clip-rule="evenodd" d="M1.5 17.5C1.5 15.2909 3.29086 13.5 5.5 13.5H12.5C14.7091 13.5 16.5 15.2909 16.5 17.5V21C16.5 21.2761 16.2761 21.5 16 21.5H2C1.72386 21.5 1.5 21.2761 1.5 21V17.5ZM5.5 14.5C3.84315 14.5 2.5 15.8431 2.5 17.5V20.5H15.5V17.5C15.5 15.8431 14.1569 14.5 12.5 14.5H5.5Z" fill="#727272"/>
<path fill-rule="evenodd" clip-rule="evenodd" d="M18.5 13.5V7.5H19.5V13.5H18.5Z" fill="#727272"/>
<path fill-rule="evenodd" clip-rule="evenodd" d="M22 11H16V10H22V11Z" fill="#727272"/>
</svg>
