<svg width="18" height="18" viewBox="0 0 18 18" fill="none" xmlns="http://www.w3.org/2000/svg">
<path fill-rule="evenodd" clip-rule="evenodd" d="M7.5 2.625C4.80761 2.625 2.625 4.80761 2.625 7.5C2.625 10.1924 4.80761 12.375 7.5 12.375C10.1924 12.375 12.375 10.1924 12.375 7.5C12.375 4.80761 10.1924 2.625 7.5 2.625ZM1.875 7.5C1.875 4.3934 4.3934 1.875 7.5 1.875C10.6066 1.875 13.125 4.3934 13.125 7.5C13.125 10.6066 10.6066 13.125 7.5 13.125C4.3934 13.125 1.875 10.6066 1.875 7.5Z" fill="#4C4C4C"/>
<path fill-rule="evenodd" clip-rule="evenodd" d="M10.5 7.5C10.5 5.84315 9.15685 4.5 7.5 4.5V3.75C9.57107 3.75 11.25 5.42893 11.25 7.5H10.5Z" fill="#4C4C4C"/>
<path fill-rule="evenodd" clip-rule="evenodd" d="M11.5152 10.9849L16.0152 15.4849L15.4849 16.0152L10.9849 11.5152L11.5152 10.9849Z" fill="#4C4C4C"/>
</svg>
