<svg width="22" height="22" viewBox="0 0 22 22" fill="none" xmlns="http://www.w3.org/2000/svg">
<path fill-rule="evenodd" clip-rule="evenodd" d="M5.75104 3.66652H16.2493C17.2874 3.66395 18.2839 4.07454 19.0188 4.80769C19.7538 5.54084 20.1668 6.5363 20.1668 7.57441V14.2323C20.1668 15.2704 19.7538 16.2659 19.0188 16.999C18.2839 17.7322 17.2874 18.1428 16.2493 18.1402H5.75104C4.71293 18.1428 3.71646 17.7322 2.9815 16.999C2.24654 16.2659 1.83349 15.2704 1.8335 14.2323V7.57441C1.83349 6.5363 2.24654 5.54084 2.9815 4.80769C3.71646 4.07454 4.71293 3.66395 5.75104 3.66652ZM16.2493 16.6928C17.5912 16.6932 18.688 15.6221 18.7195 14.2805V7.57441C18.7141 6.21394 17.6098 5.11387 16.2493 5.11388H5.75104C4.39056 5.11387 3.28618 6.21394 3.28086 7.57441V14.2323C3.28618 15.5928 4.39056 16.6928 5.75104 16.6928H16.2493Z" fill="black"/>
<path fill-rule="evenodd" clip-rule="evenodd" d="M7.07297 11.1735C7.07297 9.04192 8.80099 7.3139 10.9326 7.3139C13.0642 7.3139 14.7923 9.04192 14.7923 11.1735C14.7923 13.3052 13.0642 15.0332 10.9326 15.0332C8.80099 15.0332 7.07297 13.3052 7.07297 11.1735ZM8.52034 11.1735C8.52034 12.5058 9.60035 13.5858 10.9326 13.5858C12.2649 13.5858 13.3449 12.5058 13.3449 11.1735C13.3449 9.84128 12.2649 8.76126 10.9326 8.76126C9.60035 8.76126 8.52034 9.84128 8.52034 11.1735Z" fill="black"/>
<path d="M14.7923 6.79767C14.7923 6.54454 14.9975 6.33933 15.2506 6.33933H16.2638C16.5169 6.33933 16.7221 6.54454 16.7221 6.79767V7.82048C16.7221 8.07361 16.5169 8.27881 16.2638 8.27881H15.2506C14.9975 8.27881 14.7923 8.07361 14.7923 7.82047V6.79767Z" fill="black"/>
</svg>
