<svg width="24" height="24" viewBox="0 0 24 24" fill="none" xmlns="http://www.w3.org/2000/svg">
<path fill-rule="evenodd" clip-rule="evenodd" d="M16.313 8.02247C16.4946 7.60596 16.0714 7.18277 15.6549 7.36433L6.52459 11.3442C6.10864 11.5255 6.12983 12.1225 6.5576 12.2739L9.46201 13.3016C9.88888 13.4527 10.2247 13.7885 10.3757 14.2153L11.4034 17.1198C11.5548 17.5475 12.1518 17.5687 12.3332 17.1528L16.313 8.02247ZM15.2553 6.44763C16.5048 5.90296 17.7744 7.17252 17.2297 8.42205L13.2499 17.5523C12.7059 18.8002 10.9148 18.7366 10.4607 17.4533L9.43301 14.5489C9.38266 14.4066 9.27073 14.2947 9.12843 14.2443L6.22402 13.2166C4.94072 12.7625 4.87715 10.9714 6.12501 10.4275L15.2553 6.44763Z" fill="#008000"/>
<path fill-rule="evenodd" clip-rule="evenodd" d="M12 2.5C6.75329 2.5 2.5 6.75329 2.5 12C2.5 17.2467 6.75329 21.5 12 21.5C17.2467 21.5 21.5 17.2467 21.5 12C21.5 6.75329 17.2467 2.5 12 2.5ZM1.5 12C1.5 6.20101 6.20101 1.5 12 1.5C17.799 1.5 22.5 6.20101 22.5 12C22.5 17.799 17.799 22.5 12 22.5C6.20101 22.5 1.5 17.799 1.5 12Z" fill="#008000"/>
</svg>
