<svg width="20" height="20" viewBox="0 0 20 20" fill="none" xmlns="http://www.w3.org/2000/svg">
<path d="M12.2083 18.3333H4.46666C3.62463 18.3032 2.84028 17.8978 2.32882 17.2282C1.81736 16.5586 1.63251 15.6953 1.82499 14.875L2.01666 13.925C2.24669 12.639 3.35218 11.6939 4.65833 11.6666H12.0083C13.3164 11.6932 14.4247 12.6377 14.6583 13.925L14.85 14.875C15.0393 15.6949 14.8532 16.5566 14.3424 17.2253C13.8316 17.8941 13.0492 18.3003 12.2083 18.3333Z" fill="#949191"/>
<path d="M8.74999 9.99997H7.91666C6.07571 9.99997 4.58333 8.50759 4.58333 6.66664V4.46664C4.58333 2.92024 5.83693 1.66664 7.38333 1.66664H9.28333C10.0266 1.66442 10.7401 1.9587 11.2657 2.48429C11.7913 3.00987 12.0855 3.72335 12.0833 4.46664V6.66664C12.0833 8.50759 10.5909 9.99997 8.74999 9.99997Z" fill="#949191"/>
<path d="M17.5 5.20831H16.3583V4.06664C16.3583 3.72146 16.0785 3.44164 15.7333 3.44164C15.3882 3.44164 15.1083 3.72146 15.1083 4.06664V5.20831H13.975C13.6298 5.20831 13.35 5.48813 13.35 5.83331C13.35 6.17848 13.6298 6.45831 13.975 6.45831H15.1083V7.59997C15.1083 7.94515 15.3882 8.22497 15.7333 8.22497C16.0785 8.22497 16.3583 7.94515 16.3583 7.59997V6.45831H17.5C17.8452 6.45831 18.125 6.17848 18.125 5.83331C18.125 5.48813 17.8452 5.20831 17.5 5.20831Z" fill="#949191"/>
</svg>
