<svg width="30" height="30" viewBox="0 0 30 30" fill="none" xmlns="http://www.w3.org/2000/svg">
<path fill-rule="evenodd" clip-rule="evenodd" d="M27.1749 18.425L27.3499 19.2875C27.5405 20.0243 27.385 20.8078 26.9276 21.4161C26.4702 22.0243 25.7606 22.3911 24.9999 22.4125H20.2374C20.2385 24.4357 18.6345 26.0951 16.6124 26.1625H6.24989C5.10556 26.1436 4.03254 25.6031 3.33615 24.6948C2.63976 23.7866 2.39624 22.6101 2.67489 21.5L2.93739 20.25C3.24262 18.5281 4.72631 17.2646 6.47489 17.2375H16.3999C16.8428 16.7081 17.4971 16.4016 18.1874 16.4H24.7999C25.9674 16.4373 26.9535 17.2781 27.1749 18.425ZM24.9749 20.525C25.1274 20.5194 25.2694 20.4461 25.3624 20.325C25.5259 20.1601 25.6082 19.9313 25.5874 19.7L25.4124 18.8375C25.3785 18.5581 25.155 18.3398 24.8749 18.3125H18.2624C18.1185 18.3135 17.9838 18.3832 17.8999 18.5C17.5414 18.9128 17.0216 19.15 16.4749 19.15H6.54988C5.69415 19.1709 4.97712 19.8035 4.84989 20.65L4.58739 21.9C4.45918 22.5157 4.61022 23.1565 4.99989 23.65C5.30426 24.0339 5.76044 24.2665 6.24988 24.2875H16.5749C17.5809 24.2207 18.354 23.3703 18.3249 22.3625C18.3453 21.3417 19.1788 20.5248 20.1999 20.525H24.9749Z" fill="black"/>
<path fill-rule="evenodd" clip-rule="evenodd" d="M16.3749 10C16.3749 12.7614 14.1363 15 11.3749 15C8.61346 15 6.37488 12.7614 6.37488 10V8.03752C6.37488 5.71793 8.25529 3.83752 10.5749 3.83752H12.2124C14.5173 3.85811 16.375 5.73249 16.3749 8.03752V10ZM10.5749 5.71252C9.29082 5.71252 8.24988 6.75346 8.24988 8.03752L8.28738 10C8.48687 11.574 9.82583 12.754 11.4124 12.754C12.9989 12.754 14.3379 11.574 14.5374 10V8.03752C14.5374 6.75346 13.4964 5.71252 12.2124 5.71252H10.5749Z" fill="black"/>
<path fill-rule="evenodd" clip-rule="evenodd" d="M25.8499 10.3125C25.8499 12.3836 24.171 14.0625 22.0999 14.0625C20.0288 14.0625 18.3499 12.3836 18.3499 10.3125V8.87502C18.3497 7.15467 19.7297 5.75233 21.4499 5.72502H22.6999C24.4396 5.72502 25.8499 7.13533 25.8499 8.87502V10.3125ZM21.4749 7.62502C20.7845 7.62502 20.2249 8.18467 20.2249 8.87502V10.3125C20.2249 11.3481 21.0644 12.1875 22.0999 12.1875C23.1354 12.1875 23.9749 11.3481 23.9749 10.3125V8.87502C23.9749 8.18467 23.4152 7.62502 22.7249 7.62502H21.4749Z" fill="black"/>
</svg>
