<svg width="12" height="12" viewBox="0 0 12 12" fill="none" xmlns="http://www.w3.org/2000/svg">
<path d="M2.49705 1.95312C2.3691 1.95312 2.2353 1.99613 2.13765 2.09363C1.9424 2.28913 1.9424 2.61712 2.13765 2.81262L5.2783 5.95312L2.13765 9.09363C1.9424 9.28913 1.9424 9.61712 2.13765 9.81262C2.33295 10.0076 2.66115 10.0076 2.85645 9.81262L5.99705 6.67213L9.13765 9.81262C9.33295 10.0076 9.66115 10.0076 9.85645 9.81262C10.0517 9.61712 10.0517 9.28913 9.85645 9.09363L6.7158 5.95312L9.85645 2.81262C10.0517 2.61712 10.0517 2.28913 9.85645 2.09363C9.7588 1.99613 9.62495 1.95312 9.49705 1.95312C9.3691 1.95312 9.23535 1.99613 9.13765 2.09363L5.99705 5.23412L2.85645 2.09363C2.7588 1.99613 2.625 1.95312 2.49705 1.95312Z" fill="#2A343D"/>
</svg>
