<svg width="71" height="18" viewBox="0 0 71 18" fill="none" xmlns="http://www.w3.org/2000/svg">
<path d="M2.9143 17L2.7603 15.438L5.2683 14.976V3.844H2.6063L1.7043 6.022H0.230298L0.670298 1.798H12.2423L12.7483 6.022H11.2743L10.3503 3.844H7.6883V14.976L10.2183 15.438L10.0863 17H2.9143ZM13.3253 17L13.1053 15.724L14.3813 15.438V2.656H13.2153L12.9953 1.292L15.8993 0.851999L16.6253 1.622V7.078C16.9333 6.858 17.322 6.67467 17.7913 6.528C18.2606 6.36667 18.73 6.286 19.1993 6.286C19.8446 6.286 20.4166 6.396 20.9153 6.616C21.414 6.82133 21.8026 7.144 22.0813 7.584C22.3746 8.024 22.5213 8.58867 22.5213 9.278V15.46L23.7753 15.724L23.7533 17H19.1113L19.0893 15.724L20.2553 15.46V9.74C20.2553 9.19733 20.1233 8.80133 19.8593 8.552C19.5953 8.288 19.2213 8.156 18.7373 8.156C18.2973 8.156 17.8793 8.25867 17.4833 8.464C17.0873 8.65467 16.8013 8.838 16.6253 9.014V15.46L17.8793 15.724L17.8573 17H13.3253ZM29.4244 17.088C28.515 17.088 27.6864 16.8827 26.9384 16.472C26.1904 16.0613 25.5964 15.46 25.1564 14.668C24.7164 13.876 24.4964 12.9153 24.4964 11.786C24.4964 10.5833 24.7164 9.57867 25.1564 8.772C25.611 7.95067 26.205 7.33467 26.9384 6.924C27.6864 6.49867 28.4784 6.286 29.3144 6.286C29.9157 6.286 30.4877 6.396 31.0304 6.616C31.5877 6.82133 32.0424 7.144 32.3944 7.584C32.7464 8.024 32.9224 8.58133 32.9224 9.256C32.9224 9.916 32.7684 10.4733 32.4604 10.928C32.167 11.3827 31.771 11.742 31.2724 12.006C30.7737 12.27 30.209 12.4607 29.5784 12.578C28.9624 12.6953 28.3317 12.754 27.6864 12.754L26.8724 12.732C26.975 13.4507 27.2464 14.052 27.6864 14.536C28.1264 15.02 28.8157 15.262 29.7544 15.262C30.3557 15.262 30.869 15.152 31.2944 14.932C31.7197 14.712 32.079 14.4773 32.3724 14.228L32.8344 15.922C32.6584 16.1127 32.4017 16.296 32.0644 16.472C31.727 16.648 31.331 16.7947 30.8764 16.912C30.4364 17.0293 29.9524 17.088 29.4244 17.088ZM26.8504 11.06L27.4664 11.082C27.789 11.082 28.1337 11.06 28.5004 11.016C28.867 10.972 29.2044 10.8913 29.5124 10.774C29.835 10.642 30.099 10.4587 30.3044 10.224C30.5097 9.98933 30.6124 9.68867 30.6124 9.322C30.6124 8.89667 30.4804 8.58867 30.2164 8.398C29.967 8.20733 29.6737 8.112 29.3364 8.112C28.8817 8.112 28.471 8.244 28.1044 8.508C27.7524 8.772 27.4664 9.13133 27.2464 9.586C27.0264 10.0407 26.8944 10.532 26.8504 11.06ZM39.3533 17L39.0893 15.328L40.4533 15.02V3.712L39.0013 3.558V1.798H44.6113C45.6526 1.798 46.5326 1.974 47.2513 2.326C47.9846 2.678 48.542 3.15467 48.9233 3.756C49.3046 4.35733 49.4953 5.032 49.4953 5.78C49.4953 6.45467 49.3706 7.034 49.1213 7.518C48.872 7.98733 48.564 8.36133 48.1973 8.64C47.8453 8.91867 47.5153 9.10933 47.2073 9.212C47.7646 9.37333 48.2633 9.608 48.7033 9.916C49.1433 10.2093 49.488 10.598 49.7373 11.082C50.0013 11.566 50.1333 12.1673 50.1333 12.886C50.1333 14.2647 49.6786 15.2987 48.7693 15.988C47.8746 16.6627 46.7013 17 45.2493 17H39.3533ZM42.9173 14.954H44.9193C45.462 14.954 45.9313 14.866 46.3273 14.69C46.738 14.514 47.046 14.2573 47.2513 13.92C47.4713 13.5827 47.5813 13.1573 47.5813 12.644C47.5813 11.9107 47.31 11.346 46.7673 10.95C46.2393 10.554 45.506 10.356 44.5673 10.356H42.9173V14.954ZM42.9173 8.354H44.4573C45.0293 8.354 45.4986 8.25133 45.8653 8.046C46.232 7.826 46.5033 7.54 46.6793 7.188C46.8553 6.836 46.9433 6.45467 46.9433 6.044C46.9433 5.31067 46.6866 4.76067 46.1733 4.394C45.66 4.02733 44.9853 3.844 44.1493 3.844H42.9173V8.354ZM55.951 17.088C55.0856 17.088 54.2936 16.868 53.575 16.428C52.8563 15.9733 52.2843 15.3353 51.859 14.514C51.4483 13.6927 51.243 12.732 51.243 11.632C51.243 10.5173 51.4556 9.564 51.881 8.772C52.3063 7.96533 52.8783 7.34933 53.597 6.924C54.3156 6.484 55.1003 6.264 55.951 6.264C56.831 6.264 57.6303 6.484 58.349 6.924C59.0676 7.364 59.6396 7.98733 60.065 8.794C60.4903 9.586 60.703 10.532 60.703 11.632C60.703 12.732 60.4903 13.6927 60.065 14.514C59.6396 15.3353 59.0676 15.9733 58.349 16.428C57.6303 16.868 56.831 17.088 55.951 17.088ZM55.951 15.262C56.4643 15.262 56.897 15.13 57.249 14.866C57.6156 14.602 57.8943 14.206 58.085 13.678C58.2756 13.15 58.371 12.512 58.371 11.764C58.371 10.9867 58.2756 10.3267 58.085 9.784C57.8943 9.24133 57.6156 8.82333 57.249 8.53C56.897 8.23667 56.4643 8.09 55.951 8.09C55.5843 8.09 55.2543 8.178 54.961 8.354C54.6676 8.53 54.411 8.78667 54.191 9.124C53.9856 9.44667 53.8316 9.83533 53.729 10.29C53.6263 10.7447 53.575 11.2507 53.575 11.808C53.575 12.556 53.6703 13.194 53.861 13.722C54.0516 14.2353 54.323 14.624 54.675 14.888C55.0416 15.1373 55.467 15.262 55.951 15.262ZM61.4677 17L61.4017 15.548H62.3257L64.5917 11.654L62.3477 7.782H61.4237V6.286H64.1297L66.3077 9.96L68.2877 6.286H70.4217V7.738H69.5637L67.2757 11.654L69.5417 15.504H70.4657V17H67.6717L65.6257 13.502L63.6457 17H61.4677Z" fill="black"/>
</svg>
